<svg width="16.707882690429688" height="62.064508056640626" viewBox="0 0 20.88485336303711 77.58063507080078">
                            <g transform="translate(10.442426681518555, 38.79031753540039)  scale(-1, 1) ">
                                <path d="M10.788-12.741c-0.132-1.267-0.194-2.396-0.624-3.613c-0.403-1.144-0.739-2.547-0.872-3.757
		c-0.098-0.87-0.261-2.203-0.758-2.93c-0.387-0.568-0.574-0.935-1.189-1.301c-0.253-0.144-1.226-0.287-1.329-0.62
		c0.15-0.125,0.536-0.326,0.513-0.573c-0.664-0.099-1.069,0.651-1.749,0.004C4.031-26.252,3.733-27,3.609-28.033
		c-0.115-0.955-0.492-1.847-0.611-2.78C2.938-31.292,2.9-31.445,3.24-31.741c0.093-0.08,0.398-0.523,0.346-0.676
		c-0.063-0.179-0.229,0.208-0.383,0.097c0.124-0.042,0.198-0.129,0.218-0.259c-0.015-0.142-0.257,0.09-0.392,0.018
		c0.256-0.094,0.336-0.148,0.309-0.431c-0.307,0.334-0.362-0.229-0.382-0.407c-0.08-0.685-0.203-1.202-0.59-1.788
		C1.8-36.042,1.283-36.95,0.396-37.527c-0.805-0.522-1.971-0.886-2.922-0.655c-0.389,0.093-0.817,0.305-1.233,0.448
		c-0.469,0.162-1.064,0.451-1.408,0.816c-1.563,1.659-1.767,4.052-1.219,6.205c0.259,1.018,0.569,2.197,0.424,3.256
		c-0.13,0.938-1.116,1.525-1.89,0.807c0.168,0.012,0.301,0.438,0.47,0.438c-0.037-0.011-0.046,0.001-0.028,0.036
		c-0.289,0.008-0.569-0.035-0.842-0.134c0.042,0.143,0.109,0.275,0.202,0.393c-1.67-0.105-1.984,2.054-1.861,3.249
		c0.075,0.731,0.258,1.477,0.181,2.217c-0.084,0.804-0.224,1.499-0.02,2.305c0.398,1.574,1.085,5.901,3.135,6.07
		c0.04,0.211-0.083-0.191,0,0c0.252,0.582,0.128,2.713-0.105,3.666c-0.314-0.143-0.537-0.076-0.518,0.31
		c0.024,0.49-0.325,0.625-0.279,1.093C-7.474-6.561-8.055-5.373-7.33-5.24c-0.346,0.784-0.364,1.727-0.498,2.569
		c-0.082,0.528-0.17,0.543,0.125,0.981c0.253,0.373-0.108,1.307-0.189,1.7c-0.286,1.38-0.051,2.826,0.146,4.204
		c0.175,1.229,0.735,2.594,0.667,3.837c-0.05,1.194-0.004,2.39-0.043,3.594c-0.021,0.593-0.164,1.229-0.034,1.817
		c0.146,0.703,0.551,1.217,0.75,1.899c0.382,1.318-0.109,2.765-0.076,4.102c0.031,1.374,0.274,2.74,0.228,4.114
		c-0.042,1.235-0.238,2.44-0.32,3.672c-0.093,1.411,0.005,2.839-0.039,4.251c-0.038,1.175-0.557,2.621,0.252,3.641
		c0.786,0.992,1.042,1.691,1.073,2.975c0.046,1.91,4.976,1.283,4.956,0.033c-0.004-0.268-0.713-1.056-0.086-1.249
		c0.016-0.064,0.503-1.371,0.408-1.366c0.055,0.227,0.385,0.92,0.537,1.091c0.384,0.427,0.746,0.306,0.725,1.016
		c-0.053,1.627,2.404,1.661,3.565,1.266c0.528-0.179,1.845-0.445,1.382-1.338c-0.372-0.71-0.469-0.52-0.196-1.294
		c0.273-0.775,0.362-1.304,0.125-2.123c-0.226-0.781-0.606-1.403-0.377-2.242c0.481-1.763,0.384-3.27,0.31-5.062
		c-0.033-0.783,0.144-1.517-0.136-2.272c-0.207-0.562-0.438-1.865-0.29-2.451c0.384-1.601,1.354-3.002,1.565-4.652
		c0.197-1.546-0.146-2.988-0.064-4.546c0.099-1.762-0.004-3.449,0.42-5.19c0.465-1.91,0.632-3.941,0.891-5.901
		c0.124-0.94,0.033-1.79-0.058-2.724C8.344-1.326,8.333-1.769,8.188-2.188c0.358-0.037,0.203-0.405,0.132-0.6
		c-0.107-0.287,0.044-0.5-0.008-0.783c-0.057-0.298-0.4-0.424-0.466-0.751c-0.113-0.574-0.4-1.071-0.552-1.622
		c-0.104-0.373,0.22-0.95,0.001-1.238C6.997-7.576,7.367-8.047,7.063-8.24C6.715-8.456,7.216-9.552,6.592-9.396
		c-0.453,0.115-0.338-0.731-0.354-0.99c-0.042-0.796,0.445-0.625,1.199-0.688c0.872-0.072,1.598,0.264,2.443,0.311
		c1.113,0.063,0.831-0.644,0.952-1.454c-0.029,0.187,0.118,0.511,0.118,0.718C10.951-11.933,10.833-12.315,10.788-12.741
		C10.732-13.28,10.817-12.46,10.788-12.741z M0.854,20.371c-0.268,1.005-0.146,2.082-0.324,3.104
		c-0.233,1.298-0.337,2.729-0.312,4.048c-0.085-1.064-0.272-2.114-0.31-3.189c-0.042-1.164-0.413-2.248-0.413-3.387
		c0-0.875,0.292-1.818,0.432-2.692c0.09-0.563,0.396-0.989,0.38-1.598c-0.005-0.34-0.036-0.635,0.115-0.881
		c-0.224,0.405,0.294,0.781,0.111,1.205c-0.101,0.231-0.027,0.435,0.033,0.675C0.839,18.681,1.142,19.295,0.854,20.371
		C0.773,20.677,0.934,20.074,0.854,20.371z M6.025-15.737c0.1-0.348,0.106-0.713,0.168-1.068c0.061-0.348,0.414-0.631,0.351-1.007
		c0.026,0.294,0.118,0.562,0.214,0.84c0.148,0.442,0.058,1.114,0.27,1.505C6.707-15.607,6.355-15.634,6.025-15.737
		C6.121-16.071,6.347-15.637,6.025-15.737z"/>
                            </g>
                        </svg>